# xmcd
#
# Track frame offsets: 
#        150
#        8401
#        24210
#        38273
#        50873
#        62858
#        83139
#        96927
#        118548
#        134751
#        149826
#
# Disc length: 2419 seconds
#
# Revision: 1
# Processed by: cddbd v1.5.2PL0 Copyright (c) Steve Scherf et al.
# Submitted via: ExactAudioCopy v0.99pb3
#
DISCID=9209710b
DTITLE=Chente Barrera - Music Lessons
DYEAR=2008
DGENRE=Tejano
TTITLE0=Tejano Star - Spangled Banner
TTITLE1=Ya Me Canse De Pelear
TTITLE2=Dame Una Cachetada -( Ft. David Farias)
TTITLE3=Ritmo Pilon - (Ft. Rick Vasquez and Friends of The Breed)
TTITLE4=Lucerito - (Ft. Oscar G.)
TTITLE5=La Llorona Loca - (Ft. Jay Perez)
TTITLE6=Destino Cruel 
TTITLE7=El Destino - (Ft. Elida Reyna)
TTITLE8=Pense Rogarte - (Ft. Albert "Tiger" Diaz)
TTITLE9=Voy A Tomar 
TTITLE10=Retro 80's Medley
EXTD=Chente Barrera Y Taconazo\nMusic Lessons
EXTT0=
EXTT1=
EXTT2=
EXTT3=
EXTT4=
EXTT5=
EXTT6=
EXTT7=
EXTT8=
EXTT9=
EXTT10=
PLAYORDER=
